<svg width="88" height="22" viewBox="0 0 88 22" fill="none" xmlns="http://www.w3.org/2000/svg">
<path d="M47.0817 1.26227C47.0818 0.973748 47.312 0.737785 47.6005 0.735259C48.2282 0.729763 48.8813 0.737903 49.507 0.740878C49.7125 0.741856 49.8996 0.860512 49.9872 1.04649L55.1948 12.098L56.7748 15.4557C56.8268 15.5662 56.8909 15.7062 56.9613 15.86C57.2296 16.4456 57.9853 16.4412 58.264 15.8604C58.9083 14.5178 59.549 13.1 60.162 11.8035L65.2504 1.04421C65.3382 0.858375 65.5254 0.7399 65.731 0.740004L67.6375 0.740974C67.9268 0.741121 68.163 0.972636 68.167 1.26194C68.1955 3.31299 68.1621 5.45859 68.1621 7.49986L68.1617 20.1298C68.1617 20.4216 67.9264 20.6589 67.6347 20.6601C67.0407 20.6627 66.4467 20.6612 65.8527 20.6557C65.5655 20.653 65.3331 20.4215 65.3294 20.1342C65.295 17.4508 65.3349 14.6651 65.3345 11.9855L65.3371 8.64061C65.3375 8.17088 64.6959 8.03441 64.505 8.46362L59.2215 20.3456C59.1363 20.5373 58.9463 20.6609 58.7366 20.6616C57.9867 20.6644 57.2177 20.6712 56.47 20.6551C56.268 20.6507 56.0862 20.5278 56.0025 20.3439C53.6386 15.1477 52.3882 12.0945 50.7162 8.37634C50.5249 7.95109 49.8949 8.08758 49.8948 8.55385L49.8927 20.1271C49.8927 20.4202 49.6553 20.658 49.3622 20.6594C48.7753 20.6624 48.1791 20.6667 47.5937 20.6589C47.3083 20.6552 47.08 20.423 47.0777 20.1375C47.0614 18.0835 47.0813 15.9942 47.0809 13.9435L47.0817 1.26227Z" fill="white"/>
<path d="M33.7521 0.20529C34.3117 0.163906 34.6293 0.164649 35.189 0.20529C35.9051 0.257292 36.3146 0.339891 37.0025 0.507819C39.2993 1.04681 41.3201 2.40721 42.6847 4.333C45.864 8.8838 45.0288 16.0956 40.3591 19.3533C39.1551 20.1816 37.7873 20.7416 36.3484 20.9955C36.0341 21.0499 34.979 21.1712 34.979 21.1712H33.9998C33.9998 21.1712 32.9137 21.0443 32.6444 20.9984C31.1964 20.748 29.8202 20.185 28.6116 19.3486C26.4693 17.8241 25.0217 15.5088 24.5888 12.9142C24.0734 9.986 24.5333 6.82107 26.2628 4.35259C27.6294 2.42479 29.6496 1.05962 31.9471 0.511255C32.6316 0.342133 33.0391 0.258016 33.7521 0.20529ZM35.1621 18.7765C39.3814 18.1587 41.3643 13.7884 40.8446 9.31484C40.6029 7.23469 39.7071 5.3278 38.2323 4.04467C36.9996 2.96956 35.4566 2.45613 33.9068 2.60534C25.5089 3.74891 26.3359 19.6238 35.1621 18.7765Z" fill="white"/>
<path d="M0 2.7183C0 1.62431 0.88693 0.737503 1.98092 0.737649L7.0694 0.73833C8.69409 0.737372 10.5674 0.62806 12.1416 0.930191C14.3415 1.35238 15.799 2.96623 15.7495 5.24283C15.7014 7.44994 14.8956 8.56691 12.9663 9.53716C15.3243 10.3087 16.7442 12.0597 16.8306 14.5768C16.9088 16.8572 15.7764 18.9229 13.7215 19.9568C13.103 20.2743 12.4366 20.488 11.7488 20.5892C10.8341 20.7149 8.74373 20.6599 7.74871 20.6591L1.88441 20.6603C0.843742 20.6605 0 19.8169 0 18.7762V2.7183ZM4.41394 12.137C3.45163 12.4293 2.79272 13.3224 2.79302 14.3281L2.794 17.666C2.79412 18.0926 3.13971 18.4384 3.56623 18.4388L7.88342 18.4427C9.62408 18.448 11.6674 18.5924 13.0145 17.2707C13.7409 16.5579 14.0178 15.6277 14.0213 14.6349C14.0304 12.0684 11.8474 11.1806 9.58075 11.1033C8.14732 11.0547 6.11532 11.6201 4.41394 12.137ZM2.79516 9.12936C2.79519 9.67626 3.2928 10.0875 3.82951 9.98251C5.2324 9.70803 7.62575 9.23759 8.16415 9.11795C8.93709 8.94619 9.80664 8.77979 11.0868 8.17593C12.367 7.57207 13.3131 6.3685 12.7756 4.31564C12.5551 3.47333 11.4455 3.00767 10.6532 2.99875C8.30771 2.97232 5.9083 2.9394 3.55514 2.96446C3.13319 2.96895 2.79481 3.31315 2.79483 3.73512L2.79516 9.12936Z" fill="white"/>
<path d="M18.8491 1.07564C18.8466 0.889737 18.9945 0.739914 19.1804 0.737561C20.044 0.726629 20.9622 0.738017 21.8312 0.740895C22.0197 0.741519 22.1718 0.892298 22.1693 1.08085C22.1472 2.70187 22.0537 9.62298 22.0531 10.6995C22.0526 11.7281 22.1378 18.0929 22.1646 20.0713C22.169 20.3942 21.9087 20.6579 21.5858 20.6592C20.866 20.662 20.137 20.6662 19.4184 20.6586C19.0998 20.6553 18.8464 20.3933 18.8508 20.0747C18.8777 18.1322 18.9631 11.8701 18.9638 10.6964C18.9645 9.468 18.8712 2.66588 18.8491 1.07564Z" fill="white"/>
<path d="M83.1633 0.736608L73.7182 0.736609C72.6243 0.736609 71.7383 1.62338 71.7383 2.71726V18.7758C71.7383 19.8164 72.5818 20.6599 73.6223 20.6599L85.8929 20.6599C86.5731 20.6599 87.1246 20.1084 87.1246 19.4282C87.1246 18.74 86.5644 18.1852 85.8763 18.1958C83.7497 18.2288 79.3594 18.2933 76.3165 18.3143C75.3225 18.3211 74.5123 17.5298 74.4856 16.5361L74.4137 13.8594C74.3881 12.9063 74.9794 12.0745 75.9303 12.0056C76.8646 11.938 78.0539 11.9253 79.371 11.8577C81.1478 11.7665 83.5032 11.792 84.9707 11.8221C85.7221 11.8376 86.3434 11.2345 86.3434 10.4829C86.3434 9.72597 85.7135 9.12159 84.9572 9.15258C83.4898 9.21271 81.1451 9.30318 79.371 9.34499C78.0294 9.3766 76.5044 9.3572 75.4813 9.33605C74.8268 9.32252 74.3093 8.78427 74.3137 8.12969L74.3419 3.93169C74.3447 3.51168 74.6791 3.17088 75.0991 3.16436C76.938 3.13581 81.6232 3.06551 83.1633 3.06551C83.9653 3.06551 84.6925 3.09657 85.2688 3.13291C85.9746 3.17742 86.5932 2.62318 86.5932 1.91595C86.5932 1.26462 86.0653 0.736603 85.4139 0.736603L83.1633 0.736608Z" fill="white"/>
</svg>
