<svg width="25" height="20" viewBox="0 0 25 20" fill="none" xmlns="http://www.w3.org/2000/svg">
<path fill-rule="evenodd" clip-rule="evenodd" d="M12.4012 0.000405048C16.7983 0.0213889 19.8712 2.38689 21.8487 5.27972C23.8203 8.16401 24.8431 11.6177 24.9982 14.0228L25 14.0519V14.0796C25 15.1885 24.4112 16.145 23.6847 16.9144C22.9785 17.6623 21.9243 18.2315 20.9708 18.6736C19.0871 19.547 16.0959 19.9816 14.6827 19.9583C14.3142 19.9522 14.0216 19.6404 14.0274 19.2636C14.0333 18.8868 14.3354 18.5846 14.704 18.5907H14.7046C16.1593 18.6085 18.6048 18.0243 20.317 17.2305C21.161 16.8392 21.9351 16.243 22.4384 15.71L22.4389 15.7094L22.4396 15.7087L22.4832 15.6618L22.4837 15.6611L22.4843 15.6605C22.9407 15.1609 23.1662 14.6559 23.1814 14.1425L23.1821 14.1231L23.179 14.1038C23.129 13.7863 22.8306 13.2779 21.8274 12.7209C21.1899 12.367 19.7648 11.777 18.8663 11.4841C18.5317 11.375 18.1136 11.1707 17.6068 11.3695C17.3712 11.4618 17.2206 11.57 17.1108 11.6944C17.0113 11.8071 16.9435 11.9418 16.8958 12.0183C16.7637 12.2304 16.6541 12.4829 16.555 12.7237C16.3592 13.1996 16.0388 13.9649 15.8086 14.3516C15.6497 14.6182 15.3715 14.7277 15.1358 14.6748C15.0142 14.6475 14.8942 14.5746 14.8113 14.4457C14.7274 14.3151 14.6967 14.1506 14.7173 13.9726C14.7355 13.8148 14.7763 13.5849 14.8156 13.3356C14.856 13.0792 14.8979 12.7843 14.9233 12.4709C14.941 12.2516 14.9497 12.0032 14.9455 11.7862C14.9388 11.4339 14.7706 10.9696 14.4211 10.698C14.3045 10.6074 14.1453 10.5654 14.0144 10.5432C13.8762 10.5198 13.7341 10.5131 13.6262 10.5131C13.2838 10.5131 12.8574 10.5281 12.545 10.5436C12.2325 10.5592 11.9834 10.571 11.8313 10.5805C11.6002 10.5949 11.4012 10.5456 11.2598 10.4513C11.1245 10.361 11.0651 10.246 11.0528 10.1439C11.0294 9.94812 11.1842 9.65428 11.6498 9.55986C12.0098 9.48687 12.8213 9.39887 13.3954 9.32988C13.5686 9.30906 13.7697 9.2627 13.9227 9.22335C14.0152 9.19954 14.175 9.15656 14.204 9.14469C14.233 9.13282 14.3699 9.0682 14.4499 9.0252C14.5119 8.99185 14.5809 8.95195 14.6435 8.90895C14.7025 8.86845 14.7713 8.81496 14.8196 8.75171C14.9653 8.56115 15.0119 8.35603 15.0219 8.14876L15.0278 8.07828C15.0373 7.9678 15.0544 7.75394 15.0507 7.58736C15.0359 6.9318 14.9607 6.26157 14.8568 5.819C14.66 4.98086 14.5203 4.50553 14.2399 3.85873L14.2392 3.85727L14.2125 3.79684L14.2121 3.79619L14.2118 3.79546C13.8622 3.02127 13.4141 2.5567 13.0831 2.20508C12.7439 1.84477 12.5 1.75444 12.3672 1.74454L12.3422 1.74357C12.1454 1.74359 11.8233 1.85314 11.4191 2.44074C11.0142 3.0294 10.6164 3.98151 10.2835 5.35303C9.62014 8.08532 9.26802 12.2485 9.44533 17.853C9.48332 19.0552 8.48337 20.1839 7.16191 19.9749L7.12704 19.9691L7.12198 19.9682C5.69083 19.7181 3.99192 19.2039 2.62536 18.3165C1.24285 17.4188 1.80963e-05 16.0733 0 14.1607V14.1329L0.00176754 14.1044C0.343694 8.69083 2.42984 5.12677 4.91738 2.93765C7.37637 0.773684 10.2594 -0.00482673 12.3349 0.000162019H12.3367L12.3379 0L12.4012 0.000405048ZM8.97685 2.76858C8.84739 2.63982 8.64209 2.58081 8.44217 2.67567C7.63362 3.0593 6.81777 3.57628 6.0486 4.25317C4.65954 5.4756 3.3975 7.24185 2.60961 9.7423L2.57241 9.86195C2.464 10.2162 2.83894 10.4788 3.132 10.3412C4.06811 9.90153 5.11069 9.73218 6.11705 9.63504C6.57495 9.59085 6.86712 9.85606 6.88103 10.0945C6.89083 10.2627 6.86048 10.4009 6.75666 10.514C6.64706 10.6334 6.42575 10.7578 5.97894 10.8224C5.48728 10.8935 4.88722 11.0792 4.32067 11.3273C3.75513 11.5749 3.20612 11.892 2.82413 12.235C2.05924 12.9219 1.86811 13.9267 1.82378 14.1703L1.82 14.1913L1.82049 14.2126C1.84532 15.2849 2.47858 16.1493 3.55645 16.8493C3.74597 16.9723 4.72793 17.4774 5.65428 17.8557C6.11733 18.0449 6.58255 18.2091 6.93639 18.2763C7.10842 18.309 7.28213 18.3246 7.4219 18.2899C7.49492 18.2718 7.57546 18.2358 7.63682 18.1646C7.7013 18.0898 7.72544 17.9984 7.72262 17.9087L7.71459 17.6435C7.554 12.0947 7.90428 7.84241 8.60961 4.93713C8.75374 4.34345 8.91513 3.79574 9.09447 3.29839C9.16689 3.09754 9.10458 2.89565 8.97685 2.76858ZM16.3967 2.64869C16.1912 2.54869 15.9806 2.61199 15.8527 2.74979C15.7269 2.88527 15.6759 3.09651 15.7665 3.29677C16.201 4.25713 16.3829 5.00714 16.6622 6.2213C16.7668 6.67624 16.8839 7.1902 17.0126 7.63977C17.1384 8.07859 17.2851 8.49433 17.462 8.72733C17.613 8.92614 17.8468 9.08426 18.1243 9.22481C18.2613 9.2942 18.4033 9.35667 18.545 9.41729C18.6121 9.44595 18.7151 9.49091 18.802 9.52892C18.8453 9.54787 18.8844 9.56503 18.9127 9.57744C18.9268 9.58364 18.9382 9.58864 18.9461 9.59211C18.95 9.59383 18.953 9.59525 18.9551 9.59616C18.9561 9.59661 18.957 9.5969 18.9575 9.59713C18.9578 9.59724 18.9581 9.59745 18.9581 9.59745L18.961 9.59867L18.9618 9.59907C18.9624 9.59929 18.9632 9.59963 18.9642 9.60004C18.9662 9.6009 18.9692 9.6022 18.9732 9.60385C18.9811 9.60719 18.9928 9.6121 19.0078 9.61843C19.0379 9.63112 19.0815 9.64952 19.1356 9.67222C19.2438 9.71764 19.394 9.78045 19.5618 9.85012C19.8968 9.98923 20.3043 10.1565 20.5887 10.2667C20.9763 10.4168 21.369 10.571 21.7564 10.7431C22.0943 10.8932 22.4883 10.578 22.3592 10.1964C21.9194 8.89686 21.2991 7.55699 20.4764 6.33811L20.4761 6.33763L20.4314 6.27185L20.431 6.27136L20.3335 6.13048C19.3159 4.68123 18.0186 3.43794 16.3967 2.64869Z" fill="url(#paint0_linear_1873_8252)"/>
<defs>
<linearGradient id="paint0_linear_1873_8252" x1="12.5" y1="0" x2="12.5" y2="20" gradientUnits="userSpaceOnUse">
<stop stop-color="#4ACE03"/>
<stop offset="1" stop-color="#029B56"/>
</linearGradient>
</defs>
</svg>
