<svg width="120" height="25" viewBox="0 0 120 25" fill="none" xmlns="http://www.w3.org/2000/svg">
<path fill-rule="evenodd" clip-rule="evenodd" d="M12.0644 2.44958C16.0526 2.46852 18.8398 4.60333 20.6334 7.21405C22.4217 9.81706 23.3494 12.934 23.49 15.1045L23.4917 15.1308V15.1558C23.4917 16.1565 22.9577 17.0198 22.2987 17.7141C21.6581 18.389 20.702 18.9028 19.8371 19.3018C18.1286 20.0899 15.4155 20.4822 14.1337 20.4612C13.7995 20.4557 13.5341 20.1742 13.5394 19.8342C13.5447 19.4941 13.8187 19.2214 14.153 19.2269H14.1536C15.4731 19.243 17.6911 18.7158 19.2441 17.9994C20.0097 17.6462 20.7117 17.1081 21.1682 16.6272L21.1687 16.6266L21.1693 16.626L21.2089 16.5836L21.2094 16.583L21.2099 16.5825C21.6238 16.1316 21.8284 15.6758 21.8422 15.2125L21.8428 15.195L21.84 15.1776C21.7947 14.8911 21.524 14.4323 20.6141 13.9296C20.0359 13.6101 18.7432 13.0777 17.9283 12.8134C17.6249 12.7149 17.2456 12.5306 16.7859 12.7099C16.5722 12.7933 16.4357 12.8909 16.3361 13.0032C16.2458 13.1049 16.1843 13.2264 16.1411 13.2954C16.0212 13.4869 15.9218 13.7148 15.832 13.9321C15.6543 14.3616 15.3637 15.0523 15.1549 15.4012C15.0109 15.6419 14.7585 15.7407 14.5447 15.6929C14.4344 15.6683 14.3256 15.6025 14.2504 15.4862C14.1743 15.3683 14.1465 15.2198 14.1651 15.0592C14.1816 14.9168 14.2187 14.7093 14.2543 14.4844C14.2909 14.2529 14.3289 13.9867 14.3519 13.7039C14.368 13.506 14.3759 13.2819 14.3721 13.086C14.366 12.7681 14.2134 12.3491 13.8965 12.104C13.7907 12.0222 13.6463 11.9843 13.5276 11.9643C13.4022 11.9431 13.2733 11.9371 13.1755 11.9371C12.8649 11.9371 12.4782 11.9506 12.1948 11.9646C11.9114 11.9786 11.6854 11.9893 11.5475 11.9979C11.3378 12.0109 11.1574 11.9664 11.0291 11.8813C10.9064 11.7998 10.8525 11.696 10.8414 11.6038C10.8201 11.4272 10.9606 11.162 11.3828 11.0768C11.7094 11.0109 12.4454 10.9315 12.9661 10.8692C13.1233 10.8504 13.3057 10.8086 13.4444 10.7731C13.5283 10.7516 13.6733 10.7128 13.6996 10.7021C13.7259 10.6914 13.8501 10.6331 13.9226 10.5943C13.9788 10.5642 14.0414 10.5282 14.0982 10.4894C14.1517 10.4528 14.2141 10.4045 14.2579 10.3475C14.39 10.1755 14.4323 9.99036 14.4414 9.8033L14.4467 9.73969C14.4554 9.63999 14.4709 9.44699 14.4675 9.29665C14.4541 8.70502 14.3859 8.10015 14.2917 7.70074C14.1132 6.94434 13.9865 6.51536 13.7321 5.93164L13.7315 5.93033L13.7072 5.87579L13.7069 5.8752L13.7066 5.87454C13.3895 5.17585 12.9831 4.75658 12.6829 4.43926C12.3752 4.11408 12.154 4.03256 12.0336 4.02363L12.0108 4.02275C11.8323 4.02277 11.5403 4.12163 11.1736 4.65193C10.8063 5.18319 10.4456 6.04245 10.1436 7.28022C9.54193 9.74605 9.22255 13.5032 9.38338 18.5612C9.41783 19.6461 8.51086 20.6648 7.31228 20.4761H7.31192L7.28066 20.4709L7.27606 20.4701C5.97799 20.2444 4.43706 19.7803 3.19757 18.9795C1.94361 18.1693 0.816346 16.955 0.81633 15.229V15.2039L0.817933 15.1782C1.12806 10.2925 3.02023 7.07602 5.27646 5.10039C7.5068 3.14745 10.1218 2.44486 12.0043 2.44936H12.0059L12.007 2.44922L12.0644 2.44958ZM8.95846 4.94781C8.84103 4.8316 8.65482 4.77835 8.4735 4.86395C7.74013 5.21017 7.00014 5.67674 6.3025 6.28761C5.0426 7.39083 3.89791 8.98484 3.18328 11.2414L3.14954 11.3494C3.05121 11.6691 3.39128 11.9061 3.6571 11.7819C4.50616 11.3851 5.4518 11.2323 6.36458 11.1446C6.7799 11.1048 7.0449 11.3441 7.05752 11.5593C7.06641 11.711 7.03888 11.8358 6.94472 11.9379C6.8453 12.0456 6.64457 12.1579 6.23932 12.2162C5.79337 12.2804 5.24911 12.4479 4.73524 12.6718C4.22229 12.8953 3.72433 13.1815 3.37785 13.4911C2.68409 14.1109 2.51073 15.0178 2.47052 15.2376L2.4671 15.2565L2.46754 15.2758C2.49006 16.2436 3.06443 17.0237 4.04208 17.6553C4.21397 17.7664 5.10462 18.2222 5.94484 18.5636C6.36484 18.7343 6.78679 18.8825 7.10773 18.9432C7.26377 18.9727 7.42132 18.9868 7.5481 18.9555C7.61433 18.9391 7.68738 18.9066 7.74303 18.8424C7.80151 18.7749 7.82341 18.6924 7.82086 18.6115L7.81357 18.3721C7.66791 13.3644 7.98562 9.52682 8.62536 6.90487C8.75609 6.36909 8.90248 5.87479 9.06514 5.42594C9.13082 5.24468 9.07431 5.06248 8.95846 4.94781ZM15.6884 4.83961C15.502 4.74936 15.311 4.80649 15.1949 4.93085C15.0808 5.05311 15.0346 5.24375 15.1168 5.42448C15.5109 6.29119 15.6759 6.96806 15.9292 8.06381C16.0241 8.47438 16.1302 8.93822 16.247 9.34395C16.3611 9.73997 16.4941 10.1152 16.6546 10.3254C16.7916 10.5049 17.0036 10.6476 17.2553 10.7744C17.3796 10.837 17.5084 10.8934 17.6369 10.9481C17.6977 10.974 17.7912 11.0146 17.87 11.0489C17.9093 11.066 17.9448 11.0815 17.9704 11.0927C17.9832 11.0982 17.9936 11.1028 18.0007 11.1059C18.0043 11.1074 18.007 11.1087 18.0089 11.1095C18.0098 11.11 18.0106 11.1102 18.0111 11.1104C18.0113 11.1105 18.0116 11.1107 18.0116 11.1107H18.0117L18.0118 11.1108L18.0143 11.1118L18.015 11.1122C18.0155 11.1124 18.0162 11.1127 18.0171 11.1131C18.0189 11.1138 18.0217 11.115 18.0253 11.1165C18.0324 11.1195 18.043 11.1239 18.0567 11.1297C18.084 11.1411 18.1235 11.1577 18.1726 11.1782C18.2707 11.2192 18.4069 11.2759 18.5591 11.3387C18.863 11.4643 19.2326 11.6153 19.4906 11.7147C19.8421 11.8502 20.1984 11.9893 20.5497 12.1446C20.8562 12.2801 21.2136 11.9957 21.0964 11.6512C20.6976 10.4784 20.1349 9.26924 19.3887 8.16923L19.3884 8.16879L19.3479 8.10943L19.3475 8.10899L19.2591 7.98185C18.3361 6.67393 17.1594 5.55188 15.6884 4.83961Z" fill="#008404"/>
<path fill-rule="evenodd" clip-rule="evenodd" d="M64.9207 1.34685C65.4797 1.30396 65.7893 1.30465 66.3495 1.34685C67.0611 1.40045 67.4621 1.48406 68.1606 1.66094L68.1622 1.66129L68.1638 1.66173C70.4465 2.21742 72.4582 3.62077 73.8182 5.61176C75.4027 7.96581 75.9946 11.0231 75.5972 13.9231C75.1998 16.8227 73.8191 19.5279 71.5048 21.2035C70.3047 22.0598 68.9424 22.6384 67.51 22.9007C67.3588 22.9279 67.0156 22.9738 66.6995 23.0139C66.5438 23.0337 66.3981 23.0517 66.2913 23.0648C66.2379 23.0713 66.1942 23.0765 66.1639 23.0802C66.1537 23.0814 66.145 23.0824 66.1379 23.0833H65.1705C65.1633 23.0824 65.1544 23.0813 65.144 23.08C65.1129 23.0762 65.0681 23.0707 65.0136 23.064C64.9044 23.0505 64.7559 23.0321 64.5989 23.0121C64.2798 22.9714 63.9404 22.9263 63.812 22.9037C62.3714 22.6451 61.0014 22.064 59.7973 21.1998C57.6645 19.6245 56.2202 17.2301 55.7879 14.5427L55.7876 14.5412L55.7874 14.5396L55.7637 14.3957C55.2822 11.3707 55.763 8.14233 57.459 5.63116C58.8214 3.63844 60.8326 2.23046 63.116 1.6651L63.1175 1.66474L63.1189 1.6643C63.8142 1.48609 64.2129 1.40114 64.9207 1.34685ZM69.7628 4.82893C68.4196 3.61381 66.7264 3.02456 65.0166 3.19533L65.0092 3.19604L65.0019 3.1971C62.7032 3.52182 61.0415 4.89639 59.9992 6.72834C58.9612 8.55281 58.5304 10.838 58.6684 13.0409C58.8063 15.2426 59.515 17.4009 60.8016 18.9598C62.0986 20.5313 63.9763 21.4815 66.385 21.2416L66.3942 21.2407L66.4035 21.2393C68.7138 20.8884 70.4045 19.468 71.4385 17.5324C72.4687 15.604 72.8529 13.1591 72.578 10.7039C72.3246 8.44133 71.3937 6.34081 69.8374 4.89722L69.7628 4.82893Z" fill="#008404"/>
<path fill-rule="evenodd" clip-rule="evenodd" d="M37.3368 1.91922C39.0504 1.91817 40.9248 1.80339 42.504 2.11781C44.6111 2.53731 45.9853 4.11937 45.938 6.37457C45.914 7.51638 45.7019 8.33407 45.2865 8.98392C44.8702 9.63502 44.2246 10.1571 43.2587 10.661L42.5063 11.0535L43.3099 11.3263C44.4683 11.7195 45.3791 12.3558 46.0114 13.1987C46.6434 14.0412 47.0122 15.1101 47.0546 16.3938C47.1313 18.7126 46.024 20.7874 44.0385 21.8237L44.0359 21.8251C43.4337 22.1458 42.7852 22.3615 42.1165 22.4639C41.673 22.5269 40.9228 22.5463 40.1338 22.5483C39.3366 22.5503 38.5736 22.5353 38.0384 22.5349L31.9819 22.5362C31.12 22.5363 30.3987 21.8077 30.3987 20.8806V3.67762C30.3987 2.69337 31.1646 1.91841 32.0815 1.91851L37.3368 1.91922ZM39.9429 12.298C38.3884 12.2433 36.2275 12.8728 34.4852 13.4219C33.3327 13.7851 32.5572 14.8877 32.5575 16.1154L32.5585 19.6914C32.5587 20.3359 33.0654 20.8813 33.7185 20.8819L38.1761 20.8861C39.0545 20.8889 40.0713 20.9303 41.0325 20.7875C42.0048 20.643 42.9652 20.3055 43.7351 19.5219C44.5707 18.6714 44.875 17.5722 44.8788 16.4452C44.8839 14.9531 44.266 13.9149 43.311 13.2539C42.3764 12.607 41.1492 12.3406 39.9429 12.298ZM41.0419 3.61527C38.6214 3.58698 36.1386 3.55161 33.7033 3.57851C33.0553 3.58567 32.5594 4.12987 32.5594 4.76693L32.5597 10.5459C32.5597 11.3435 33.2669 11.977 34.0629 11.8154C35.5079 11.5221 37.9866 11.0167 38.5487 10.8871C39.3474 10.703 40.2818 10.5173 41.6449 9.85028C42.3584 9.50117 43.0017 8.9673 43.3858 8.20144C43.7719 7.43168 43.8761 6.46775 43.5814 5.30006C43.4351 4.72057 43.0034 4.30163 42.5353 4.03379C42.0657 3.76512 41.5143 3.62079 41.0419 3.61527Z" fill="#008404"/>
<path d="M79.1974 1.91577C79.8423 1.90991 80.5111 1.91858 81.1613 1.92179C81.2271 1.92213 81.2947 1.96176 81.3287 2.03641L88.3384 17.4731C88.3911 17.5894 88.4563 17.7373 88.5294 17.9028C88.7229 18.341 89.1134 18.5887 89.5307 18.5878C89.9462 18.587 90.3365 18.3401 90.5359 17.909C91.1999 16.4735 91.8692 14.938 92.4968 13.5609L97.7517 2.03446C97.7858 1.95963 97.8532 1.92078 97.9178 1.92082L99.8867 1.92188C99.9762 1.92194 100.098 2.05406 100.1 2.1766C100.129 4.37137 100.066 6.60492 100.066 8.79995L100.19 22.4967C100.19 22.6231 100.085 22.7017 99.9863 22.702C99.4755 22.7041 98.9646 22.7037 98.4538 22.7009L97.943 22.6973C97.8456 22.6965 97.743 22.6198 97.7413 22.497C97.7017 19.6247 97.8717 16.4839 97.8713 13.6057L97.874 10.0223C97.8743 9.58575 97.5757 9.28728 97.2338 9.21183C96.8903 9.13602 96.4923 9.2841 96.3185 9.68951L90.862 22.4188C90.8289 22.4962 90.7599 22.5371 90.6933 22.5374C89.9159 22.5404 89.1281 22.5477 88.3621 22.5305C88.3038 22.5292 88.237 22.4907 88.2034 22.4141C85.7562 16.8338 84.4827 13.604 82.7446 9.59465C82.5708 9.19369 82.1769 9.04492 81.8342 9.12183C81.4935 9.19828 81.2007 9.49719 81.2007 9.92902L81.279 22.4937C81.2789 22.62 81.1764 22.7008 81.0783 22.7013C80.426 22.7045 79.7691 22.709 79.1246 22.7008C79.0354 22.6997 78.9377 22.6254 78.9367 22.5022C78.9185 20.303 79.0208 17.9051 79.0204 15.7031L78.9661 2.22196C78.9661 2.09606 79.1141 1.91653 79.1974 1.91577Z" fill="#008404"/>
<path d="M49.868 2.18629C49.866 2.03596 49.9863 1.91611 50.1366 1.91495C50.8434 1.9095 51.5772 1.91658 52.2928 1.92023C52.4441 1.92101 52.566 2.04114 52.564 2.19243C52.5361 4.32186 52.4481 11.1242 52.4476 12.2273C52.4471 13.3326 52.5351 20.1551 52.5628 22.2723C52.5648 22.4285 52.4465 22.5341 52.3264 22.5346C51.5818 22.5376 50.8321 22.542 50.0935 22.5339C49.9794 22.5327 49.864 22.4312 49.8661 22.276C49.8938 20.1971 49.982 13.4849 49.9827 12.2244C49.9834 10.9667 49.8959 4.28193 49.868 2.18629Z" fill="#008404"/>
<path d="M119.1 2.81782C119.1 2.30772 118.705 1.91719 118.245 1.91719H106.166C105.25 1.91719 104.485 2.69194 104.485 3.6763V20.88C104.485 21.807 105.206 22.5355 106.068 22.5355H118.74C119.229 22.5355 119.649 22.1199 119.649 21.5788C119.649 21.03 119.222 20.6134 118.728 20.6213C116.532 20.6566 111.997 20.7258 108.852 20.7483C107.614 20.7571 106.629 19.7376 106.596 18.4899L106.522 15.6223C106.492 14.4688 107.194 13.3577 108.424 13.2652C108.964 13.2246 109.6 13.2019 110.289 13.1772C110.828 13.1579 111.4 13.1374 111.985 13.1062C113.835 13.0078 116.279 13.0353 117.795 13.0677C118.357 13.0797 118.842 12.6086 118.842 11.9958C118.842 11.3778 118.35 10.9092 117.789 10.933C116.273 10.9974 113.849 11.0945 112.013 11.1393C110.619 11.1734 109.038 11.1524 107.98 11.1298C107.091 11.1107 106.413 10.357 106.419 9.47233L106.448 4.97499C106.452 4.34223 106.942 3.80289 107.587 3.79251C109.484 3.76195 114.327 3.68657 115.921 3.68657C116.758 3.68657 117.518 3.72022 118.119 3.75956C118.635 3.79333 119.1 3.36915 119.1 2.81782Z" fill="#008404"/>
</svg>
