<svg width="36" height="36" viewBox="0 0 36 36" fill="none" xmlns="http://www.w3.org/2000/svg">
<path fill-rule="evenodd" clip-rule="evenodd" d="M18.4012 7.00041C22.7983 7.02139 25.8712 9.38689 27.8487 12.2797C29.8203 15.164 30.8431 18.6177 30.9982 21.0228L31 21.0519V21.0796C31 22.1885 30.4112 23.145 29.6847 23.9144C28.9785 24.6623 27.9243 25.2315 26.9708 25.6736C25.0871 26.547 22.0959 26.9816 20.6827 26.9583C20.3142 26.9522 20.0216 26.6404 20.0274 26.2636C20.0333 25.8868 20.3354 25.5846 20.704 25.5907H20.7046C22.1593 25.6085 24.6048 25.0243 26.317 24.2305C27.161 23.8392 27.9351 23.243 28.4384 22.71L28.4389 22.7094L28.4396 22.7087L28.4832 22.6618L28.4837 22.6611L28.4843 22.6605C28.9407 22.1609 29.1662 21.6559 29.1814 21.1425L29.1821 21.1231L29.179 21.1038C29.129 20.7863 28.8306 20.2779 27.8274 19.7209C27.1899 19.367 25.7648 18.777 24.8663 18.4841C24.5317 18.375 24.1136 18.1707 23.6068 18.3695C23.3712 18.4618 23.2206 18.57 23.1108 18.6944C23.0113 18.8071 22.9435 18.9418 22.8958 19.0183C22.7637 19.2304 22.6541 19.4829 22.555 19.7237C22.3592 20.1996 22.0388 20.9649 21.8086 21.3516C21.6497 21.6182 21.3715 21.7277 21.1358 21.6748C21.0142 21.6475 20.8942 21.5746 20.8113 21.4457C20.7274 21.3151 20.6967 21.1506 20.7173 20.9726C20.7355 20.8148 20.7763 20.5849 20.8156 20.3356C20.856 20.0792 20.8979 19.7843 20.9233 19.4709C20.941 19.2516 20.9497 19.0032 20.9455 18.7862C20.9388 18.4339 20.7706 17.9696 20.4211 17.698C20.3045 17.6074 20.1453 17.5654 20.0144 17.5432C19.8762 17.5198 19.7341 17.5131 19.6262 17.5131C19.2838 17.5131 18.8574 17.5281 18.545 17.5436C18.2325 17.5592 17.9834 17.571 17.8313 17.5805C17.6002 17.5949 17.4012 17.5456 17.2598 17.4513C17.1245 17.361 17.0651 17.246 17.0528 17.1439C17.0294 16.9481 17.1842 16.6543 17.6498 16.5599C18.0098 16.4869 18.8213 16.3989 19.3954 16.3299C19.5686 16.3091 19.7697 16.2627 19.9227 16.2233C20.0152 16.1995 20.175 16.1566 20.204 16.1447C20.233 16.1328 20.3699 16.0682 20.4499 16.0252C20.5119 15.9918 20.5809 15.952 20.6435 15.909C20.7025 15.8685 20.7713 15.815 20.8196 15.7517C20.9653 15.5612 21.0119 15.356 21.0219 15.1488L21.0278 15.0783C21.0373 14.9678 21.0544 14.7539 21.0507 14.5874C21.0359 13.9318 20.9607 13.2616 20.8568 12.819C20.66 11.9809 20.5203 11.5055 20.2399 10.8587L20.2392 10.8573L20.2125 10.7968L20.2121 10.7962L20.2118 10.7955C19.8622 10.0213 19.4141 9.5567 19.0831 9.20508C18.7439 8.84477 18.5 8.75444 18.3672 8.74454L18.3422 8.74357C18.1454 8.74359 17.8233 8.85314 17.4191 9.44074C17.0142 10.0294 16.6164 10.9815 16.2835 12.353C15.6201 15.0853 15.268 19.2485 15.4453 24.853C15.4833 26.0552 14.4834 27.1839 13.1619 26.9749L13.127 26.9691L13.122 26.9682C11.6908 26.7181 9.99192 26.2039 8.62536 25.3165C7.24285 24.4188 6.00002 23.0733 6 21.1607V21.1329L6.00177 21.1044C6.34369 15.6908 8.42984 12.1268 10.9174 9.93765C13.3764 7.77368 16.2594 6.99517 18.3349 7.00016H18.3367L18.3379 7L18.4012 7.00041ZM14.9769 9.76858C14.8474 9.63982 14.6421 9.58081 14.4422 9.67567C13.6336 10.0593 12.8178 10.5763 12.0486 11.2532C10.6595 12.4756 9.3975 14.2419 8.60961 16.7423L8.57241 16.8619C8.464 17.2162 8.83894 17.4788 9.132 17.3412C10.0681 16.9015 11.1107 16.7322 12.1171 16.635C12.5749 16.5909 12.8671 16.8561 12.881 17.0945C12.8908 17.2627 12.8605 17.4009 12.7567 17.514C12.6471 17.6334 12.4258 17.7578 11.9789 17.8224C11.4873 17.8935 10.8872 18.0792 10.3207 18.3273C9.75513 18.5749 9.20612 18.892 8.82413 19.235C8.05924 19.9219 7.86811 20.9267 7.82378 21.1703L7.82 21.1913L7.82049 21.2126C7.84532 22.2849 8.47858 23.1493 9.55645 23.8493C9.74597 23.9723 10.7279 24.4774 11.6543 24.8557C12.1173 25.0449 12.5825 25.2091 12.9364 25.2763C13.1084 25.309 13.2821 25.3246 13.4219 25.2899C13.4949 25.2718 13.5755 25.2358 13.6368 25.1646C13.7013 25.0898 13.7254 24.9984 13.7226 24.9087L13.7146 24.6435C13.554 19.0947 13.9043 14.8424 14.6096 11.9371C14.7537 11.3434 14.9151 10.7957 15.0945 10.2984C15.1669 10.0975 15.1046 9.89565 14.9769 9.76858ZM22.3967 9.64869C22.1912 9.54869 21.9806 9.61199 21.8527 9.74979C21.7269 9.88527 21.6759 10.0965 21.7665 10.2968C22.201 11.2571 22.3829 12.0071 22.6622 13.2213C22.7668 13.6762 22.8839 14.1902 23.0126 14.6398C23.1384 15.0786 23.2851 15.4943 23.462 15.7273C23.613 15.9261 23.8468 16.0843 24.1243 16.2248C24.2613 16.2942 24.4033 16.3567 24.545 16.4173C24.6121 16.4459 24.7151 16.4909 24.802 16.5289C24.8453 16.5479 24.8844 16.565 24.9127 16.5774C24.9268 16.5836 24.9382 16.5886 24.9461 16.5921C24.95 16.5938 24.953 16.5952 24.9551 16.5962C24.9561 16.5966 24.957 16.5969 24.9575 16.5971C24.9578 16.5972 24.9581 16.5975 24.9581 16.5975L24.961 16.5987L24.9618 16.5991C24.9624 16.5993 24.9632 16.5996 24.9642 16.6C24.9662 16.6009 24.9692 16.6022 24.9732 16.6039C24.9811 16.6072 24.9928 16.6121 25.0078 16.6184C25.0379 16.6311 25.0815 16.6495 25.1356 16.6722C25.2438 16.7176 25.394 16.7804 25.5618 16.8501C25.8968 16.9892 26.3043 17.1565 26.5887 17.2667C26.9763 17.4168 27.369 17.571 27.7564 17.7431C28.0943 17.8932 28.4883 17.578 28.3592 17.1964C27.9194 15.8969 27.2991 14.557 26.4764 13.3381L26.4761 13.3376L26.4314 13.2718L26.431 13.2714L26.3335 13.1305C25.3159 11.6812 24.0186 10.4379 22.3967 9.64869Z" fill="#292B33"/>
</svg>
